Land_normalized_Motion_pl10
version=1
nRows=14
nColumns=43
inDegrees=yes
endheader
time		pelvis_tilt		pelvis_list		pelvis_rotation		pelvis_tx		pelvis_ty		pelvis_tz		hip_flexion_r		hip_adduction_r		hip_rotation_r		knee_angle_r		ankle_angle_r		subtalar_angle_r		mtp_angle_r		hip_flexion_l		hip_adduction_l		hip_rotation_l		knee_angle_l		ankle_angle_l		subtalar_angle_l		mtp_angle_l		lumbar_extension		lumbar_bending		lumbar_rotation		neck_flexion		neck_lateral_bending		neck_rotation		arm_flex_r		arm_add_r		arm_rot_r		elbow_flex_r		pro_sup_r		wrist_flex_r		wrist_dev_r		hand_finger_flex_r		arm_flex_l		arm_add_l		arm_rot_l		elbow_flex_l		pro_sup_l		wrist_flex_l		wrist_dev_l		hand_finger_flex_l		
0.765000		1.232952		-2.016172		100.179442		-0.012476		0.939015		0.615668		34.106062		-10.005252		-21.158644		-32.873595		-21.737657		-3.768468		26.021632		32.906157		-4.261042		-9.008235		-32.414274		-17.755804		4.842879		26.980254		-26.567142		-0.112719		-1.483532		-21.031319		3.645009		-5.540809		-72.351848		-19.894182		-29.347968		45.007803		137.294565		-6.298766		-13.087383		-27.192353		-86.551491		-24.121287		-41.023023		66.062261		135.807483		-27.359920		-4.641696		-14.674718		
0.767727		1.142320		-1.850491		100.098612		-0.012346		0.928880		0.611808		34.463249		-10.177332		-20.897397		-33.941180		-21.571273		-3.488283		26.242726		33.297938		-4.283480		-9.035639		-33.586290		-17.762085		5.015571		27.326017		-26.893770		-0.156256		-1.462046		-20.714301		3.515636		-5.525876		-71.479983		-19.816256		-29.438109		44.452181		137.270309		-6.591779		-12.950801		-27.114644		-85.365148		-24.037045		-40.504846		65.461998		135.649757		-27.771250		-4.652121		-14.692023		
0.770455		1.054672		-1.535263		100.020667		-0.012289		0.918889		0.607752		34.638700		-10.344543		-20.777348		-34.965235		-21.597227		-3.433266		26.311118		33.537634		-4.320378		-8.993493		-34.783872		-17.897182		5.099785		27.424384		-27.301660		-0.187663		-1.412538		-20.851131		3.560000		-5.519356		-70.773934		-19.803392		-29.462512		44.179922		137.240146		-6.634139		-12.835468		-27.081844		-84.346020		-23.911529		-40.177254		65.244949		135.587671		-27.792141		-4.603994		-14.681879		
0.773182		0.990647		-1.393481		99.951874		-0.012151		0.908524		0.603931		35.056272		-10.486957		-20.422287		-35.989580		-21.639219		-3.204828		26.515893		34.001302		-4.373393		-9.038277		-35.988882		-18.001030		5.298257		27.767882		-27.605659		-0.206443		-1.399408		-20.540096		3.462836		-5.489928		-69.894639		-19.775356		-29.533898		43.721637		137.113598		-6.960557		-12.826468		-27.019458		-83.133065		-23.839302		-39.694128		64.732071		135.479629		-28.293169		-4.669459		-14.769476		
0.775909		0.940115		-1.514267		99.809670		-0.011847		0.897645		0.600376		35.829358		-10.582037		-19.808415		-36.976877		-21.729341		-2.792576		26.968904		34.749156		-4.433392		-9.138094		-37.162968		-17.988081		5.647261		28.586969		-27.699566		-0.273506		-1.363145		-19.742576		3.201493		-5.452238		-68.879748		-19.735915		-29.614622		43.082823		136.824671		-7.742213		-13.044949		-26.852538		-81.750674		-23.826715		-38.970487		63.853794		135.251875		-29.556430		-4.946387		-14.935996		
0.778636		0.882396		-1.354235		99.758848		-0.011757		0.887237		0.596615		36.201691		-10.695061		-19.455071		-37.823816		-21.807851		-2.814216		27.159581		35.204997		-4.430259		-9.025446		-38.378459		-17.633111		5.817797		28.973080		-28.044488		-0.294909		-1.410172		-19.332079		3.161665		-5.359031		-67.875873		-19.775893		-29.714736		42.702490		136.615739		-7.927876		-12.929971		-26.726454		-80.538685		-23.623900		-38.675338		63.609470		135.082494		-29.768246		-4.884943		-14.851762		
0.781364		0.880328		-1.344318		99.648386		-0.011465		0.876336		0.592918		36.824038		-10.735357		-18.991536		-38.748194		-21.717414		-2.807841		27.577373		35.914036		-4.534247		-8.988555		-39.822571		-16.722008		6.394239		29.748187		-28.193816		-0.317184		-1.338193		-18.994767		3.145517		-5.300169		-67.023559		-19.823755		-29.635017		42.395102		136.199229		-8.466776		-13.172991		-26.534556		-79.349613		-23.546248		-38.270503		63.270522		134.996383		-30.522631		-5.073748		-14.844530		
0.784091		0.840251		-1.307010		99.566615		-0.011271		0.865539		0.589271		37.394970		-10.808298		-18.534533		-39.658326		-21.231109		-2.895175		27.960195		36.592659		-4.548037		-8.876082		-41.369535		-15.225032		6.769246		30.445478		-28.405275		-0.355440		-1.319375		-18.608078		3.120015		-5.245025		-66.070647		-19.878223		-29.604786		42.094804		135.808503		-8.914006		-13.285401		-26.363536		-78.113355		-23.412903		-37.959680		63.044476		134.910386		-31.100146		-5.174919		-14.818529		
0.786818		0.838451		-1.305549		99.479089		-0.010993		0.854501		0.585645		38.038857		-10.836264		-18.064795		-40.716410		-19.938231		-2.780394		28.373634		37.388502		-4.627564		-8.754065		-43.220022		-12.826051		7.509455		31.082273		-28.561892		-0.376255		-1.257935		-18.232947		3.132394		-5.188765		-65.185995		-19.945259		-29.499349		41.901747		135.364160		-9.445355		-13.461436		-26.213148		-76.915749		-23.302550		-37.688515		62.894309		134.943852		-31.719930		-5.327713		-14.876431		
0.789545		0.791281		-1.250903		99.421552		-0.010836		0.843655		0.582160		38.615930		-10.889035		-17.617128		-41.897970		-18.009294		-2.993670		28.667171		38.119322		-4.602155		-8.586089		-45.207458		-9.831728		7.719104		31.535624		-28.839991		-0.405075		-1.253880		-17.656498		3.125413		-5.126400		-64.164230		-20.002503		-29.495450		41.709620		135.026983		-9.830687		-13.483141		-26.130084		-75.643495		-23.138950		-37.488030		62.848880		134.957885		-32.144441		-5.387243		-14.955853		
0.792273		0.844375		-1.309339		99.296552		-0.010313		0.832322		0.578538		39.359507		-10.804767		-17.156797		-43.371153		-14.823936		-2.575887		28.935173		39.091717		-4.818225		-8.507903		-47.632852		-6.066676		8.731580		31.847761		-28.902074		-0.419073		-1.088752		-17.364645		3.176930		-5.090533		-63.359298		-20.061632		-29.259267		41.655923		134.500110		-10.557447		-13.760780		-26.022414		-74.467695		-23.112665		-37.221002		62.775271		135.113376		-32.936926		-5.655443		-15.208996		
0.795000		0.880992		-1.313524		99.185231		-0.009927		0.821105		0.575003		40.068416		-10.729917		-16.754629		-45.108397		-10.927355		-2.379668		28.909983		39.996482		-4.987829		-8.422954		-50.175557		-2.041259		9.176834		31.826996		-29.066160		-0.420515		-0.954932		-16.911181		3.227762		-5.053157		-62.464028		-20.149764		-29.025244		41.601384		133.904976		-11.311760		-13.925288		-25.852342		-73.244188		-23.059178		-36.951102		62.773204		135.208925		-33.645278		-5.865097		-15.445788		
0.797727		0.913505		-1.265953		99.068108		-0.009541		0.809983		0.571478		40.729581		-10.636042		-16.424647		-47.109107		-6.427989		-2.229164		28.504309		40.847171		-5.180150		-8.384440		-52.839770		2.016801		9.301387		31.474379		-29.304308		-0.419790		-0.802143		-16.407810		3.290551		-5.008017		-61.552280		-20.241293		-28.784775		41.599291		133.338244		-12.077934		-14.050678		-25.685746		-71.984302		-23.016663		-36.673414		62.832239		135.304877		-34.340093		-6.075319		-15.735053		
0.800455		0.885540		-1.157599		98.989401		-0.009336		0.799102		0.568122		41.345426		-10.628648		-16.243567		-49.317336		-1.864839		-2.551850		26.437999		41.609063		-5.253257		-8.371744		-55.472235		5.850363		8.723946		29.988013		-29.685017		-0.439150		-0.726368		-15.619268		3.293217		-4.907420		-60.481543		-20.382345		-28.449762		41.519620		132.480789		-12.957552		-14.073571		-25.206239		-70.658389		-22.944904		-36.386739		62.980399		135.236400		-34.907739		-6.199767		-15.976119		
